<svg xmlns="http://www.w3.org/2000/svg" viewBox="0 0 512 512" fill="url(#goldGradient)">
  <defs>
    <linearGradient id="goldGradient" x1="0%" y1="0%" x2="100%" y2="100%">
      <stop offset="0%" style="stop-color:#FFD700;stop-opacity:1" />
      <stop offset="50%" style="stop-color:#FFA500;stop-opacity:1" />
      <stop offset="100%" style="stop-color:#B8860B;stop-opacity:1" />
    </linearGradient>
  </defs>
  <path d="M256 32a224 224 0 1 0 224 224A224.26 224.26 0 0 0 256 32zm0 416a192 192 0 1 1 192-192 192.22 192.22 0 0 1-192 192zm0-320a128 128 0 1 0 128 128 128.14 128.14 0 0 0-128-128zm0 224a96 96 0 1 1 96-96 96.11 96.11 0 0 1-96 96z"/>
  <text x="50%" y="380" text-anchor="middle" font-family="'Tajawal', sans-serif" font-weight="900" font-size="64" fill="url(#goldGradient)">RUWAAD</text>
  <text x="50%" y="440" text-anchor="middle" font-family="'Tajawal', sans-serif" font-weight="700" font-size="40" fill="url(#goldGradient)">TECH</text>
</svg>